PathFileType	4	(X/Y/Z)	c:/Users/goper/Files/vsCode/490R/osim_files/C11/C11_Slow_02.trc
DataRate	CameraRate	NumFrames	NumMarkers	Units                	OrigDataRate	OrigDataStartFrame	OrigNumFrames
120.00	120.00	6	36	mm	120.0	988	1316
                Frame#	Time	LPSIS			LASIS			LTH1			LTH2			LTH3			LTH4			LLFE			LMFE			LSH1			LSH2			LSH3			LSH4			LLMAL			LMMAL			LCAL			LMTP5			LTOE			LMTP1			RPSIS			RASIS			RTH1			RTH2			RTH3			RTH4			RLFE			RMFE			RSH1			RSH2			RSH3			RSH4			RLMAL			RMMAL			RCAL			RMTP1			RTOE			RMTP5		
		X1	Y1	Z1	X2	Y2	Z2	X3	Y3	Z3	X4	Y4	Z4	X5	Y5	Z5	X6	Y6	Z6	X7	Y7	Z7	X8	Y8	Z8	X9	Y9	Z9	X10	Y10	Z10	X11	Y11	Z11	X12	Y12	Z12	X13	Y13	Z13	X14	Y14	Z14	X15	Y15	Z15	X16	Y16	Z16	X17	Y17	Z17	X18	Y18	Z18	X19	Y19	Z19	X20	Y20	Z20	X21	Y21	Z21	X22	Y22	Z22	X23	Y23	Z23	X24	Y24	Z24	X25	Y25	Z25	X26	Y26	Z26	X27	Y27	Z27	X28	Y28	Z28	X29	Y29	Z29	X30	Y30	Z30	X31	Y31	Z31	X32	Y32	Z32	X33	Y33	Z33	X34	Y34	Z34	X35	Y35	Z35	X36	Y36	Z36

988	8.22500	-2647.44189	974.79639	356.28967	-2833.44702	982.82935	403.72174	-2921.20459	620.19562	455.21387	-2935.85986	576.43250	446.61728	-2866.07715	596.55975	444.40933	-2888.29932	555.90918	439.43527	0.00000	0.00000	0.00000	-2939.26099	505.08432	439.36511	-2917.59863	389.67758	445.63547	-2932.05884	348.78281	442.97433	-2979.53320	406.76001	455.14536	-2984.39771	361.47156	450.33694	-3041.39111	103.48267	384.14609	-3071.30908	134.57584	295.61072	-2999.69751	57.39235	322.10800	-3163.18848	80.81651	416.54953	-3227.89258	132.75389	359.01413	-3199.65503	106.93526	310.87964	-2644.14282	990.32581	271.17181	-2797.60400	969.46002	172.56897	-2657.74976	622.80127	158.81134	-2655.88965	579.73621	166.93672	-2719.70337	611.12030	165.87622	-2707.71924	571.56659	171.39093	-2656.43823	491.39420	189.18495	-2638.67407	485.59189	301.29980	-2553.03711	409.90088	181.13724	-2541.06616	366.40015	186.63052	-2612.90552	385.74051	188.08313	-2590.31055	344.12256	191.12631	-2454.52051	115.77782	255.87425	-2482.75439	123.49723	346.34265	-2388.05420	88.53099	308.72983	-2601.04712	53.35198	327.34570	-2604.76294	62.29317	278.19308	-2558.60742	45.13079	217.23384
989	8.23333	-2658.19824	974.19275	356.54584	-2843.50781	982.49780	403.32489	-2930.63599	620.15070	454.08417	-2945.07861	576.31616	445.58115	-2875.55103	596.74664	444.04712	-2898.80347	555.75647	439.45163	0.00000	0.00000	0.00000	-2947.23804	504.63144	438.21188	-2926.84985	389.56528	444.59103	-2940.72314	348.70425	441.70242	-2988.64380	406.60541	453.91595	-2993.66675	361.31534	448.97797	-3046.73926	103.62051	382.58011	-3077.10059	132.06877	292.82663	-3001.32935	59.22029	321.08365	-3167.60083	76.04894	413.61908	-3234.36597	123.37405	354.79361	-3204.23364	98.39973	307.35696	-2653.14136	989.71954	271.29205	-2807.02246	968.71820	172.07634	-2666.44141	622.16388	159.00668	-2664.66309	579.12732	167.08656	-2728.57983	610.32513	165.56987	-2716.37427	570.77289	171.22243	-2666.02710	491.16113	189.20628	-2647.53003	485.23505	301.24451	-2560.91235	410.85767	181.22168	-2547.24121	367.81299	186.54390	-2619.67627	385.77066	188.11227	-2596.31689	344.59097	191.10472	-2456.21509	118.30996	255.32321	-2486.38647	125.24438	344.55167	-2389.25269	92.53042	308.26413	-2601.05469	53.46772	327.95630	-2605.24121	62.15087	278.28036	-2558.78833	45.17657	217.20178
990	8.24167	-2666.92627	974.27606	356.91171	-2853.87354	982.54578	403.04150	-2940.07495	619.95282	453.33524	-2954.45605	576.16815	444.93027	-2884.82544	596.68787	443.74658	-2906.66895	555.94250	438.78696	0.00000	0.00000	0.00000	-2956.53491	504.27176	437.28415	-2936.72241	389.75485	444.21796	-2951.00684	348.74451	441.87460	-2998.73560	406.32401	452.75107	-3003.50610	360.95013	448.02380	-3051.54761	102.96752	381.34305	-3081.67798	129.58168	290.76785	-3003.20557	60.32921	320.88983	-3171.56177	70.55316	410.92380	-3239.34277	114.04618	350.57672	-3207.43213	90.03818	303.82675	-2663.05347	988.99365	271.43344	-2816.47998	968.07629	171.67038	-2675.05103	621.87732	159.33800	-2673.73706	578.47821	167.22612	-2737.82031	609.67096	165.28583	-2726.08667	570.31213	170.75151	-2675.10132	490.55368	189.19208	-2656.93896	484.84232	301.16492	-2568.75439	412.21042	181.18663	-2554.10425	369.46899	186.46930	-2623.48608	384.45016	188.67897	-2602.77100	345.33273	190.85057	-2458.25366	121.20832	254.72211	-2488.90405	127.69955	343.85669	-2390.91626	96.74248	307.92325	-2601.48828	53.46031	327.77316	-2606.03125	61.71074	277.54535	-2559.01221	45.26423	217.13287
991	8.25000	-2676.95117	974.44666	357.13071	-2864.38208	982.84094	402.83386	-2949.98950	619.77875	452.48959	-2964.16650	575.90759	444.03687	-2894.56860	596.57007	443.53171	-2917.71948	555.63220	438.88913	0.00000	0.00000	0.00000	-2966.47314	504.01926	436.21088	-2946.67798	389.88882	444.06824	-2960.78223	348.54886	442.14575	-3009.09937	405.84360	451.46683	-3013.27197	360.32501	447.04199	-3056.41675	102.14034	380.76477	-3085.40112	127.37167	289.30386	-3006.77271	60.50898	321.40256	-3175.71948	65.80164	408.65698	-3243.67627	106.19326	346.72934	-3209.78003	82.93552	300.65509	-2673.16772	988.54120	271.50055	-2826.36670	967.57886	171.34859	-2685.27490	621.41626	159.02850	-2683.39087	577.94318	167.23126	-2747.49365	609.06458	165.05836	-2735.80957	569.67145	170.45847	-2684.73730	490.02765	188.92822	-2666.86426	484.52344	300.81787	-2576.89111	413.88647	181.05852	-2561.69165	371.33627	186.38301	-2630.74707	384.55902	188.40620	-2609.53760	346.23224	190.42755	-2460.46558	124.26368	253.93394	-2491.42065	130.76357	342.94669	-2392.81323	101.64971	307.33344	-2601.96387	53.36791	327.67294	-2606.86670	61.50947	277.23953	-2559.27612	45.41351	216.99066
992	8.25833	-2691.47217	973.78845	357.52148	-2874.95557	983.15497	402.66888	-2960.20044	619.55975	451.38208	-2974.43970	575.85114	442.88821	-2904.82446	596.61932	443.40918	-2927.82153	555.49652	438.39005	0.00000	0.00000	0.00000	-2977.45898	503.69608	435.68881	-2955.87354	389.87491	443.61050	-2969.02612	348.12878	441.64548	-3018.47021	405.00323	450.23770	-3021.91748	359.27112	445.80820	-3060.14746	101.59096	379.84961	-3089.21875	125.54569	287.87299	-3006.79761	62.37768	321.08438	-3178.99438	61.69440	406.51123	-3248.26270	99.36427	344.05209	-3212.10596	76.75005	297.92725	-2683.68066	988.19287	271.59271	-2836.50684	967.13055	171.18658	-2695.43604	620.76105	159.01175	-2694.57593	577.22247	166.86987	-2757.68896	608.42035	164.73338	-2745.97217	569.01013	170.17667	-2691.44385	489.20544	186.59117	-2677.54175	484.02539	300.38315	-2585.80957	415.48053	180.95235	-2569.50903	373.31885	186.11246	-2638.75781	384.96106	187.96268	-2616.70093	347.19797	189.87987	-2463.06348	127.54195	252.94080	-2494.38086	134.10211	341.87836	-2395.13135	106.99616	306.58157	-2602.93457	53.77437	327.19299	-2607.72925	61.17648	276.77280	-2559.63037	45.59463	216.77332
993	8.26667	-2700.33789	974.55505	357.32614	-2885.62891	983.32538	402.50989	-2970.63403	619.57098	450.15201	-2984.65308	575.82642	441.77255	-2913.96680	596.58356	440.85812	-2938.07007	555.55261	437.92645	0.00000	0.00000	0.00000	-2986.05103	503.17325	434.73199	-2966.67944	390.89957	445.95688	-2976.97266	347.68039	441.08505	-3026.90869	404.10144	449.18048	-3029.78809	358.18491	444.70758	-3064.59351	100.80252	379.29764	-3093.01270	123.76579	286.83905	-3008.74048	63.43551	321.18796	-3181.82056	57.63751	404.87454	-3251.69702	91.98187	341.44641	-3214.17651	70.49048	295.88434	-2694.03394	987.98859	271.74371	-2846.70508	966.71979	171.05592	-2706.34570	619.91449	159.05939	-2705.41431	576.45868	166.69493	-2768.40161	607.74866	164.43744	-2756.83447	568.36829	169.77931	-2702.08154	488.60117	186.31059	-2688.81641	483.25949	299.88071	-2594.96875	417.28171	180.76424	-2577.94946	375.42285	185.68465	-2647.34229	385.38095	187.42812	-2624.38867	348.25363	189.20389	-2466.06909	131.07370	251.80957	-2497.77417	137.58008	340.68625	-2397.72778	112.80004	305.68695	-2603.74170	53.92815	326.95474	-2608.75879	60.88184	276.28735	-2559.87061	45.78558	216.50647
